<svg width="27" height="27" viewBox="0 0 27 27" fill="none" xmlns="http://www.w3.org/2000/svg">
<ellipse opacity="0.5" cx="13.5" cy="20.8125" rx="11.25" ry="3.9375" fill="parent"/>
<path d="M13.4999 1.40625C13.9659 1.40625 14.3437 1.78401 14.3437 2.25V3.41603L19.9774 6.23286L20.0382 6.26323C20.8644 6.67628 21.5687 7.02836 22.0588 7.37043C22.5558 7.71729 23.0782 8.22093 23.0782 9C23.0782 9.77907 22.5558 10.2827 22.0588 10.6296C21.5687 10.9716 20.8644 11.3237 20.0382 11.7368L14.3437 14.584V20.25C14.3437 20.716 13.9659 21.0938 13.4999 21.0938C13.034 21.0938 12.6562 20.716 12.6562 20.25V14.0808C12.6559 14.069 12.6559 14.0573 12.6562 14.0455V3.95447C12.6559 3.94274 12.6559 3.93099 12.6562 3.91922V2.25C12.6562 1.78401 13.034 1.40625 13.4999 1.40625Z" fill="parent"/>
</svg>
