<svg width="27" height="27" viewBox="0 0 27 27" xmlns="http://www.w3.org/2000/svg">
<path opacity="0.5" fill-rule="evenodd" clip-rule="evenodd" d="M14.3438 2.25C14.3438 1.78401 13.966 1.40625 13.5 1.40625C13.034 1.40625 12.6562 1.78401 12.6562 2.25V3.9375H14.3438V2.25ZM12.6562 11.8125V14.0625H14.3438V11.8125H12.6562ZM12.6562 23.9062V21.9375H14.3438V23.9062H15.75C16.216 23.9062 16.5938 24.284 16.5938 24.75C16.5938 25.216 16.216 25.5938 15.75 25.5938H11.25C10.784 25.5938 10.4062 25.216 10.4062 24.75C10.4062 24.284 10.784 23.9062 11.25 23.9062H12.6562Z" fill="white"/>
<path fill-rule="evenodd" clip-rule="evenodd" d="M19.6869 3.9375H7.54143C6.80167 3.9375 6.43179 3.9375 6.09237 4.04798C5.94263 4.09671 5.79841 4.16104 5.6621 4.23989C5.35312 4.41863 5.10599 4.69384 4.61174 5.24426C3.6547 6.31005 3.17618 6.84295 3.06098 7.46572C3.01092 7.73628 3.01092 8.01372 3.06098 8.28428C3.17618 8.90705 3.6547 9.43995 4.61174 10.5057C5.10599 11.0562 5.35312 11.3314 5.6621 11.5101C5.79841 11.589 5.94263 11.6533 6.09237 11.702C6.43179 11.8125 6.80167 11.8125 7.54143 11.8125H19.6869C21.267 11.8125 22.057 11.8125 22.6245 11.4333C22.8702 11.2691 23.0811 11.0582 23.2452 10.8125C23.6244 10.245 23.6244 9.45502 23.6244 7.875C23.6244 6.29498 23.6244 5.50497 23.2452 4.93747C23.0811 4.69179 22.8702 4.48085 22.6245 4.31669C22.057 3.9375 21.267 3.9375 19.6869 3.9375ZM10.125 7.03125C9.65901 7.03125 9.28125 7.40901 9.28125 7.875C9.28125 8.34099 9.65901 8.71875 10.125 8.71875H16.875C17.341 8.71875 17.7188 8.34099 17.7188 7.875C17.7188 7.40901 17.341 7.03125 16.875 7.03125H10.125Z" fill="parent"/>
<path fill-rule="evenodd" clip-rule="evenodd" d="M19.4575 14.0625H7.31195C5.73193 14.0625 4.94192 14.0625 4.37442 14.4417C4.12874 14.6059 3.9178 14.8168 3.75364 15.0625C3.37445 15.63 3.37445 16.42 3.37445 18C3.37445 19.58 3.37445 20.37 3.75364 20.9375C3.9178 21.1832 4.12874 21.3941 4.37442 21.5583C4.94192 21.9375 5.73193 21.9375 7.31195 21.9375H19.4575C20.1972 21.9375 20.5671 21.9375 20.9065 21.827C21.0563 21.7783 21.2005 21.714 21.3368 21.6351C21.6458 21.4564 21.8929 21.1812 22.3871 20.6307C23.3442 19.565 23.8227 19.032 23.9379 18.4093C23.988 18.1387 23.988 17.8613 23.9379 17.5907C23.8227 16.968 23.3442 16.4351 22.3871 15.3693C21.8929 14.8188 21.6458 14.5436 21.3368 14.3649C21.2005 14.286 21.0563 14.2217 20.9065 14.173C20.5671 14.0625 20.1972 14.0625 19.4575 14.0625ZM9.28125 18C9.28125 17.534 9.65901 17.1562 10.125 17.1562H16.875C17.341 17.1562 17.7188 17.534 17.7188 18C17.7188 18.466 17.341 18.8438 16.875 18.8438H10.125C9.65901 18.8438 9.28125 18.466 9.28125 18Z" fill="parent"/>
</svg>
