<svg width="27" height="27" viewBox="0 0 27 27" xmlns="http://www.w3.org/2000/svg">
<path d="M24.75 16.875C24.0932 16.875 23.5394 16.875 23.0625 16.8835C22.0189 16.9021 21.3433 16.9614 20.7618 17.1503C19.0493 17.7067 17.7067 19.0493 17.1503 20.7618C16.9614 21.3433 16.9021 22.0189 16.8835 23.0625C16.875 23.5394 16.875 24.0932 16.875 24.75C17.418 24.75 17.9483 24.695 18.4604 24.5904L18.4621 24.59L18.5155 24.5789L18.5194 24.578L18.5626 24.5688C21.5572 23.9149 23.9149 21.5572 24.5688 18.5626C24.6875 18.0189 24.75 17.4543 24.75 16.875Z" fill="parent"/>
<path opacity="0.5" d="M13.5 24.75C8.1967 24.75 5.54505 24.75 3.89752 23.1025C2.25 21.455 2.25 18.8033 2.25 13.5C2.25 8.1967 2.25 5.54505 3.89752 3.89752C5.54505 2.25 8.1967 2.25 13.5 2.25C18.8033 2.25 21.455 2.25 23.1025 3.89752C24.75 5.54505 24.75 8.1967 24.75 13.5C24.75 14.7694 24.75 15.8869 24.7274 16.875C24.0805 16.875 23.5339 16.8751 23.0625 16.8835C22.0189 16.9021 21.3433 16.9614 20.7618 17.1503C19.0493 17.7067 17.7067 19.0493 17.1503 20.7618C16.9614 21.3433 16.9021 22.0189 16.8835 23.0625C16.8751 23.5339 16.875 24.0805 16.875 24.7274C15.8869 24.75 14.7694 24.75 13.5 24.75Z" fill="parent"/>
</svg>
