<svg width="27" height="27" viewBox="0 0 27 27" xmlns="http://www.w3.org/2000/svg">
<path opacity="0.5" fill-rule="evenodd" clip-rule="evenodd" d="M16.0637 2.42127C15.647 2.25 15.1189 2.25 14.0625 2.25C13.0061 2.25 12.478 2.25 12.0613 2.42127C11.5058 2.64963 11.0645 3.08765 10.8344 3.63896C10.7293 3.89063 10.6882 4.18331 10.6721 4.61024C10.6485 5.23764 10.3243 5.81838 9.77644 6.1323C9.22858 6.44621 8.55972 6.43448 8.00042 6.1411C7.61983 5.94146 7.34387 5.83045 7.07174 5.79489C6.4756 5.717 5.8727 5.87733 5.39568 6.2406C5.0379 6.51305 4.77382 6.96701 4.24564 7.87492C3.71747 8.78284 3.45338 9.23679 3.39452 9.68052C3.31603 10.2722 3.47758 10.8705 3.84362 11.3439C4.01069 11.56 4.24549 11.7417 4.60992 11.9689C5.14565 12.303 5.49036 12.8721 5.49033 13.5C5.49029 14.1279 5.1456 14.6969 4.60991 15.031C4.24543 15.2582 4.01059 15.4399 3.8435 15.656C3.47747 16.1294 3.31592 16.7278 3.3944 17.3194C3.45327 17.7631 3.71735 18.2171 4.24553 19.125C4.77371 20.0329 5.03779 20.4869 5.39556 20.7593C5.87259 21.1226 6.47549 21.2829 7.07163 21.205C7.34375 21.1695 7.61969 21.0585 8.00025 20.8589C8.55958 20.5655 9.22849 20.5537 9.77639 20.8677C10.3243 21.1816 10.6485 21.7624 10.6721 22.3898C10.6882 22.8167 10.7293 23.1094 10.8344 23.361C11.0645 23.9124 11.5058 24.3504 12.0613 24.5787C12.478 24.75 13.0061 24.75 14.0625 24.75C15.1189 24.75 15.647 24.75 16.0637 24.5787C16.6192 24.3504 17.0605 23.9124 17.2906 23.361C17.3957 23.1094 17.4368 22.8167 17.4529 22.3897C17.4765 21.7623 17.8007 21.1816 18.3485 20.8677C18.8964 20.5537 19.5653 20.5654 20.1247 20.8588C20.5052 21.0584 20.7812 21.1694 21.0533 21.205C21.6494 21.2828 22.2523 21.1225 22.7293 20.7592C23.0871 20.4868 23.3512 20.0328 23.8794 19.1249C24.4075 18.217 24.6716 17.7631 24.7305 17.3193C24.809 16.7277 24.6474 16.1294 24.2814 15.6559C24.1143 15.4398 23.8795 15.2582 23.515 15.0309C22.9793 14.6969 22.6346 14.1278 22.6347 13.4999C22.6347 12.8721 22.9794 12.3031 23.515 11.9691C23.8795 11.7418 24.1144 11.5601 24.2815 11.344C24.6475 10.8706 24.8091 10.2722 24.7306 9.6806C24.6717 9.23687 24.4076 8.78291 23.8795 7.875C23.3513 6.96709 23.0872 6.51313 22.7294 6.24068C22.2524 5.87741 21.6495 5.71708 21.0534 5.79497C20.7813 5.83053 20.5053 5.94153 20.1248 6.14115C19.5654 6.43454 18.8965 6.44627 18.3486 6.13233C17.8007 5.81839 17.4765 5.23762 17.4529 4.61018C17.4368 4.18329 17.3957 3.89062 17.2906 3.63896C17.0605 3.08765 16.6192 2.64963 16.0637 2.42127Z" fill="parent"/>
<path d="M17.463 13.5C17.463 15.364 15.9405 16.875 14.0623 16.875C12.1842 16.875 10.6616 15.364 10.6616 13.5C10.6616 11.636 12.1842 10.125 14.0623 10.125C15.9405 10.125 17.463 11.636 17.463 13.5Z" fill="parent"/>
</svg>
